<svg width="79" height="78" viewBox="0 0 79 78" fill="none" xmlns="http://www.w3.org/2000/svg">
<path d="M66.4248 24.1201H11.0808C10.65 24.1201 10.3008 24.4693 10.3008 24.9001V49.6201C10.3008 50.0509 10.65 50.4001 11.0808 50.4001H66.4248C66.8556 50.4001 67.2048 50.0509 67.2048 49.6201V24.9001C67.2048 24.4693 66.8556 24.1201 66.4248 24.1201Z" stroke="#2B4EFF" stroke-width="2"/>
<path d="M19.9609 23.689V20.209" stroke="#2B4EFF"/>
<path d="M25.8366 16.7695H13.3926V20.1655H25.8366V16.7695Z" stroke="#2B4EFF"/>
<path d="M38.7617 23.689V20.209" stroke="#2B4EFF"/>
<path d="M44.6374 16.7695H32.1934V20.1655H44.6374V16.7695Z" stroke="#2B4EFF"/>
<path d="M57.5332 23.689V20.209" stroke="#2B4EFF"/>
<path d="M63.4089 16.7695H50.9648V20.1655H63.4089V16.7695Z" stroke="#2B4EFF"/>
<path d="M17.1816 41.002V33.085H19.9548C20.9154 33.085 21.644 33.2698 22.1406 33.6396C22.6373 34.0058 22.8856 34.544 22.8856 35.2545C22.8856 35.6424 22.7859 35.985 22.5865 36.2823C22.3871 36.5759 22.1098 36.7915 21.7546 36.9293C22.1606 37.0307 22.4796 37.2356 22.7116 37.5438C22.9472 37.8519 23.065 38.2288 23.065 38.6748C23.065 39.436 22.8221 40.0124 22.3364 40.4039C21.8506 40.7953 21.1583 40.9947 20.2593 41.002H17.1816ZM18.8129 37.5546V39.6916H20.2104C20.5946 39.6916 20.8937 39.6009 21.1075 39.4197C21.325 39.2348 21.4338 38.9811 21.4338 38.6584C21.4338 37.9334 21.0586 37.5654 20.3082 37.5546H18.8129ZM18.8129 36.4018H20.0201C20.8429 36.3873 21.2543 36.0593 21.2543 35.4176C21.2543 35.0588 21.1492 34.8014 20.939 34.6455C20.7324 34.486 20.4043 34.4063 19.9548 34.4063H18.8129V36.4018Z" fill="#2B4EFF"/>
<path d="M28.7635 39.3707H25.9034L25.3596 41.002H23.625L26.5722 33.085H28.0838L31.0472 41.002H29.3127L28.7635 39.3707ZM26.3438 38.0494H28.323L27.328 35.086L26.3438 38.0494Z" fill="#2B4EFF"/>
<path d="M38.2252 41.002H36.5939L33.4184 35.7928V41.002H31.7871V33.085H33.4184L36.5993 38.305V33.085H38.2252V41.002Z" fill="#2B4EFF"/>
<path d="M46.0865 41.002H44.4552L41.2797 35.7928V41.002H39.6484V33.085H41.2797L44.4606 38.305V33.085H46.0865V41.002Z" fill="#2B4EFF"/>
<path d="M52.275 37.5709H49.143V39.6916H52.8188V41.002H47.5117V33.085H52.8078V34.4063H49.143V36.2931H52.275V37.5709Z" fill="#2B4EFF"/>
<path d="M56.7062 38.1038H55.4066V41.002H53.7754V33.085H56.7171C57.6523 33.085 58.3737 33.2934 58.8812 33.7103C59.3887 34.1272 59.6425 34.7163 59.6425 35.4775C59.6425 36.0176 59.5246 36.4689 59.289 36.8314C59.057 37.1903 58.7036 37.4767 58.2287 37.6905L59.9415 40.9258V41.002H58.1907L56.7062 38.1038ZM55.4066 36.7825H56.7225C57.1321 36.7825 57.4494 36.6791 57.6741 36.4725C57.8988 36.2623 58.0112 35.9741 58.0112 35.6079C58.0112 35.2346 57.9042 34.941 57.6904 34.7271C57.4802 34.5132 57.1557 34.4063 56.7171 34.4063H55.4066V36.7825Z" fill="#2B4EFF"/>
<path d="M20.6543 50.4834V61.6194" stroke="#2B4EFF"/>
<path d="M40.1484 50.4834V61.6194" stroke="#2B4EFF"/>
<path d="M63.1172 50.4834V61.6194" stroke="#2B4EFF"/>
<path d="M7.13086 61.2305H72.4708" stroke="#2B4EFF" stroke-linecap="round"/>
<path d="M13.0046 27.516C13.389 27.516 13.7006 27.2044 13.7006 26.82C13.7006 26.4356 13.389 26.124 13.0046 26.124C12.6202 26.124 12.3086 26.4356 12.3086 26.82C12.3086 27.2044 12.6202 27.516 13.0046 27.516Z" fill="#2B4EFF"/>
<path d="M64.5066 27.516C64.8909 27.516 65.2025 27.2044 65.2025 26.82C65.2025 26.4356 64.8909 26.124 64.5066 26.124C64.1222 26.124 63.8105 26.4356 63.8105 26.82C63.8105 27.2044 64.1222 27.516 64.5066 27.516Z" fill="#2B4EFF"/>
<path d="M65.2019 48.3969C65.5862 48.3969 65.8979 48.0853 65.8979 47.7009C65.8979 47.3165 65.5862 47.0049 65.2019 47.0049C64.8175 47.0049 64.5059 47.3165 64.5059 47.7009C64.5059 48.0853 64.8175 48.3969 65.2019 48.3969Z" fill="#2B4EFF"/>
<path d="M13.0046 48.3969C13.389 48.3969 13.7006 48.0853 13.7006 47.7009C13.7006 47.3165 13.389 47.0049 13.0046 47.0049C12.6202 47.0049 12.3086 47.3165 12.3086 47.7009C12.3086 48.0853 12.6202 48.3969 13.0046 48.3969Z" fill="#2B4EFF"/>
</svg>
