<svg width="78" height="78" viewBox="0 0 78 78" fill="none" xmlns="http://www.w3.org/2000/svg">
<path d="M33.8008 35.5332H51.1341" stroke="#2B4EFF" stroke-width="2" stroke-linecap="round" stroke-linejoin="round"/>
<path d="M33.8008 42.4658H51.1341" stroke="#2B4EFF" stroke-width="2" stroke-linecap="round" stroke-linejoin="round"/>
<path d="M19.9336 54.5994C20.853 54.5994 21.7347 54.2341 22.3849 53.5841C23.035 52.9339 23.4003 52.0522 23.4003 51.1327V25.1327C23.4003 24.6731 23.5829 24.2322 23.908 23.9071C24.233 23.582 24.6739 23.3994 25.1336 23.3994H59.8003C60.2599 23.3994 60.7008 23.582 61.0259 23.9071C61.351 24.2322 61.5336 24.6731 61.5336 25.1327V51.1327C61.5336 52.0522 61.1683 52.9339 60.5182 53.5841C59.8681 54.2341 58.9863 54.5994 58.0669 54.5994H19.9336Z" stroke="#2B4EFF" stroke-width="2" stroke-linecap="round" stroke-linejoin="round"/>
<path d="M19.9335 54.5997C19.014 54.5997 18.1323 54.2344 17.4822 53.5843C16.8321 52.9342 16.4668 52.0524 16.4668 51.133V30.333" stroke="#2B4EFF" stroke-width="2" stroke-linecap="round" stroke-linejoin="round"/>
</svg>
