<svg width="78" height="78" viewBox="0 0 78 78" fill="none" xmlns="http://www.w3.org/2000/svg">
<path d="M68.6401 28.8604H9.36008C8.9293 28.8604 8.58008 29.2096 8.58008 29.6404V47.6918C8.58008 48.1226 8.9293 48.4718 9.36008 48.4718H68.6401C69.0709 48.4718 69.4201 48.1226 69.4201 47.6918V29.6404C69.4201 29.2096 69.0709 28.8604 68.6401 28.8604Z" stroke="#2B4EFF" stroke-width="2"/>
<path d="M23.9648 41.4518V35.1143H26.1847C26.9537 35.1143 27.5369 35.2623 27.9345 35.5582C28.3321 35.8514 28.5308 36.2822 28.5308 36.851C28.5308 37.1615 28.451 37.4357 28.2914 37.6737C28.1318 37.9087 27.9099 38.0814 27.6255 38.1916C27.9505 38.2729 28.2058 38.4368 28.3915 38.6835C28.5801 38.9301 28.6745 39.2319 28.6745 39.5888C28.6745 40.1982 28.48 40.6596 28.0912 40.973C27.7024 41.2864 27.1481 41.446 26.4285 41.4518H23.9648ZM25.2706 38.6922V40.4028H26.3893C26.6969 40.4028 26.9363 40.3303 27.1075 40.1851C27.2816 40.0372 27.3686 39.834 27.3686 39.5758C27.3686 38.9954 27.0683 38.7009 26.4676 38.6922H25.2706ZM25.2706 37.7694H26.237C26.8956 37.7578 27.225 37.4952 27.225 36.9816C27.225 36.6943 27.1409 36.4883 26.9725 36.3635C26.8072 36.2358 26.5445 36.1719 26.1847 36.1719H25.2706V37.7694Z" fill="#2B4EFF"/>
<path d="M32.396 40.973C32.0855 41.3502 31.656 41.5388 31.1076 41.5388C30.6027 41.5388 30.2167 41.3937 29.9497 41.1036C29.6857 40.8134 29.5508 40.3883 29.5449 39.8282V36.7422H30.8028V39.7847C30.8028 40.2751 31.0263 40.5203 31.4732 40.5203C31.8997 40.5203 32.1928 40.3723 32.3525 40.0763V36.7422H33.6147V41.4518H32.4308L32.396 40.973Z" fill="#2B4EFF"/>
<path d="M36.0706 35.584V36.7418H36.8758V37.6646H36.0706V40.015C36.0706 40.1891 36.104 40.3139 36.1707 40.3893C36.2375 40.4648 36.3652 40.5025 36.5538 40.5025C36.6931 40.5025 36.8164 40.4924 36.9237 40.472V41.4253C36.6771 41.5008 36.4232 41.5384 36.162 41.5384C35.2799 41.5384 34.8301 41.0931 34.8127 40.2022V37.6646H34.125V36.7418H34.8127V35.584H36.0706Z" fill="#2B4EFF"/>
<path d="M39.0824 35.584V36.7418H39.8876V37.6646H39.0824V40.015C39.0824 40.1891 39.1157 40.3139 39.1824 40.3893C39.2492 40.4648 39.3769 40.5025 39.5655 40.5025C39.7048 40.5025 39.8281 40.4924 39.9354 40.472V41.4253C39.6888 41.5008 39.4349 41.5384 39.1738 41.5384C38.2916 41.5384 37.8418 41.0931 37.8244 40.2022V37.6646H37.1367V36.7418H37.8244V35.584H39.0824Z" fill="#2B4EFF"/>
<path d="M40.2617 39.0526C40.2617 38.5854 40.3517 38.169 40.5315 37.8034C40.7115 37.4377 40.9697 37.1548 41.3064 36.9546C41.6458 36.7544 42.039 36.6543 42.4859 36.6543C43.1214 36.6543 43.6394 36.8487 44.0398 37.2375C44.4431 37.6263 44.668 38.1545 44.7145 38.8219L44.7232 39.144C44.7232 39.8666 44.5215 40.4469 44.1182 40.8851C43.7148 41.3203 43.1736 41.538 42.4946 41.538C41.8156 41.538 41.273 41.3203 40.8667 40.8851C40.4633 40.4498 40.2617 39.8578 40.2617 39.1092V39.0526ZM41.5196 39.144C41.5196 39.5908 41.6038 39.9333 41.772 40.1712C41.9404 40.4063 42.1812 40.5238 42.4946 40.5238C42.7993 40.5238 43.0373 40.4077 43.2085 40.1756C43.3797 39.9405 43.4653 39.5662 43.4653 39.0526C43.4653 38.6144 43.3797 38.2749 43.2085 38.034C43.0373 37.7933 42.7964 37.6728 42.4859 37.6728C42.1783 37.6728 41.9404 37.7933 41.772 38.034C41.6038 38.272 41.5196 38.642 41.5196 39.144Z" fill="#2B4EFF"/>
<path d="M46.6565 36.7413L46.6957 37.2854C47.0323 36.8647 47.4836 36.6543 48.0494 36.6543C48.5485 36.6543 48.9199 36.8008 49.1637 37.0939C49.4074 37.3869 49.5322 37.8252 49.538 38.4084V41.4509H48.2801V38.4389C48.2801 38.1719 48.2221 37.979 48.106 37.8599C47.99 37.7381 47.797 37.6772 47.5271 37.6772C47.1731 37.6772 46.9075 37.828 46.7306 38.1298V41.4509H45.4727V36.7413H46.6565Z" fill="#2B4EFF"/>
<path d="M53.0459 40.1495C53.0459 39.9957 52.969 39.8752 52.8152 39.7882C52.6643 39.6982 52.4206 39.6185 52.0839 39.5488C50.9639 39.3138 50.4038 38.8378 50.4038 38.1211C50.4038 37.7032 50.5765 37.355 50.9218 37.0765C51.27 36.795 51.7241 36.6543 52.2842 36.6543C52.882 36.6543 53.3593 36.795 53.7162 37.0765C54.0761 37.3579 54.2559 37.7236 54.2559 38.1733H52.998C52.998 37.9935 52.94 37.8454 52.8239 37.7294C52.7079 37.6104 52.5265 37.5509 52.2798 37.5509C52.068 37.5509 51.9041 37.5988 51.788 37.6946C51.6719 37.7903 51.6138 37.9122 51.6138 38.0602C51.6138 38.1995 51.6791 38.3127 51.8098 38.3997C51.9432 38.4839 52.1666 38.5578 52.48 38.6217C52.7934 38.6826 53.0575 38.7523 53.2723 38.8306C53.9368 39.0743 54.269 39.4965 54.269 40.0972C54.269 40.5267 54.0847 40.875 53.7162 41.1419C53.3477 41.406 52.8718 41.538 52.2885 41.538C51.8939 41.538 51.5428 41.4683 51.2351 41.3291C50.9305 41.1869 50.6911 40.9939 50.517 40.7502C50.3429 40.5035 50.2559 40.238 50.2559 39.9536H51.4485C51.4601 40.177 51.5428 40.3482 51.6966 40.4672C51.8503 40.5862 52.0564 40.6457 52.3147 40.6457C52.5555 40.6457 52.7369 40.6007 52.8587 40.5108C52.9835 40.4179 53.0459 40.2974 53.0459 40.1495Z" fill="#2B4EFF"/>
</svg>
