<svg width="78" height="78" viewBox="0 0 78 78" fill="none" xmlns="http://www.w3.org/2000/svg">
<path d="M61.5792 32.8565H57.2944V32.0064L59.3166 29.8511C59.5942 29.5477 59.7989 29.283 59.9306 29.0569C60.065 28.8307 60.1324 28.6161 60.1324 28.4129C60.1324 28.1352 60.0622 27.9178 59.922 27.7603C59.7817 27.6 59.5814 27.5199 59.3209 27.5199C59.0404 27.5199 58.8186 27.6172 58.6554 27.8118C58.4951 28.0036 58.415 28.2569 58.415 28.5717H57.1699C57.1699 28.1911 57.2601 27.8433 57.4404 27.5285C57.6236 27.2137 57.8812 26.9675 58.2132 26.79C58.5452 26.6097 58.9216 26.5195 59.3424 26.5195C59.9863 26.5195 60.4858 26.6741 60.8408 26.9832C61.1985 27.2924 61.3774 27.7288 61.3774 28.2927C61.3774 28.6018 61.2973 28.9166 61.137 29.2372C60.9767 29.5578 60.7019 29.9313 60.3126 30.3578L58.8915 31.8561H61.5792V32.8565Z" fill="#2B4EFF"/>
<path d="M58.5824 46.2176H59.2436C59.5584 46.2176 59.7917 46.1389 59.9434 45.9814C60.0952 45.824 60.171 45.615 60.171 45.3546C60.171 45.1027 60.0952 44.9066 59.9434 44.7664C59.7946 44.6261 59.5885 44.556 59.3252 44.556C59.0876 44.556 58.8887 44.6218 58.7284 44.7535C58.5681 44.8823 58.488 45.0512 58.488 45.2601H57.2472C57.2472 44.9338 57.3345 44.6419 57.5091 44.3843C57.6866 44.1238 57.9327 43.9206 58.2476 43.7746C58.5653 43.6287 58.9145 43.5557 59.2951 43.5557C59.9563 43.5557 60.4744 43.7146 60.8493 44.0322C61.2243 44.3471 61.4117 44.7821 61.4117 45.3374C61.4117 45.6236 61.3244 45.8869 61.1499 46.1274C60.9752 46.3678 60.7463 46.5524 60.4629 46.6812C60.8149 46.8072 61.0769 46.9961 61.2486 47.2479C61.4232 47.4998 61.5105 47.7975 61.5105 48.141C61.5105 48.6963 61.3073 49.1413 60.9008 49.4762C60.4972 49.811 59.962 49.9785 59.2951 49.9785C58.6712 49.9785 58.1603 49.8139 57.7624 49.4848C57.3674 49.1556 57.1699 48.7205 57.1699 48.1796H58.4107C58.4107 48.4143 58.498 48.6061 58.6726 48.7549C58.85 48.9037 59.0676 48.9781 59.3252 48.9781C59.62 48.9781 59.8504 48.9008 60.0164 48.7463C60.1852 48.5889 60.2697 48.3814 60.2697 48.1238C60.2697 47.4998 59.9263 47.1878 59.2393 47.1878H58.5824V46.2176Z" fill="#2B4EFF"/>
<mask id="mask0_436_8568" style="mask-type:alpha" maskUnits="userSpaceOnUse" x="9" y="26" width="61" height="25">
<path d="M67.6999 26.5195H10.9194C10.0578 26.5195 9.35938 27.218 9.35938 28.0795V49.1395C9.35938 50.0011 10.0578 50.6995 10.9194 50.6995H67.6999C68.5614 50.6995 69.2599 50.0011 69.2599 49.1395V28.0795C69.2599 27.218 68.5614 26.5195 67.6999 26.5195Z" fill="white"/>
</mask>
<g mask="url(#mask0_436_8568)">
<path d="M67.6999 26.5195H10.9194C10.0578 26.5195 9.35938 27.218 9.35938 28.0795V49.1395C9.35938 50.0011 10.0578 50.6995 10.9194 50.6995H67.6999C68.5614 50.6995 69.2599 50.0011 69.2599 49.1395V28.0795C69.2599 27.218 68.5614 26.5195 67.6999 26.5195Z" stroke="#2B4EFF" stroke-width="4"/>
<path d="M20.0052 41.5722H18.7644V36.7894L17.2832 37.2489V36.2399L19.8721 35.3125H20.0052V41.5722Z" fill="#2B4EFF"/>
<path d="M42.0258 39.2109H42.7342V40.2112H42.0258V41.5637H40.7849V40.2112H38.2219L38.166 39.4298L40.7721 35.3125H42.0258V39.2109ZM39.4026 39.2109H40.7849V37.0041L40.7034 37.1458L39.4026 39.2109Z" fill="#2B4EFF"/>
<path d="M28.1152 26.5195V50.15" stroke="#2B4EFF" stroke-width="2"/>
<path d="M52.8457 26.5195V50.15" stroke="#2B4EFF" stroke-width="2"/>
</g>
</svg>
