<svg width="78" height="78" viewBox="0 0 78 78" fill="none" xmlns="http://www.w3.org/2000/svg">
<mask id="mask0_436_8579" style="mask-type:alpha" maskUnits="userSpaceOnUse" x="7" y="16" width="64" height="46">
<path d="M68.6408 16.3799H9.36078C8.49922 16.3799 7.80078 17.0783 7.80078 17.9399V59.4731C7.80078 60.3347 8.49922 61.0331 9.36078 61.0331H68.6408C69.5023 61.0331 70.2008 60.3347 70.2008 59.4731V17.9399C70.2008 17.0783 69.5023 16.3799 68.6408 16.3799Z" fill="white"/>
</mask>
<g mask="url(#mask0_436_8579)">
<path d="M68.6408 16.3799H9.36078C8.49922 16.3799 7.80078 17.0783 7.80078 17.9399V59.4731C7.80078 60.3347 8.49922 61.0331 9.36078 61.0331H68.6408C69.5023 61.0331 70.2008 60.3347 70.2008 59.4731V17.9399C70.2008 17.0783 69.5023 16.3799 68.6408 16.3799Z" stroke="#2B4EFF" stroke-width="4"/>
<path d="M65.0475 23.2493C65.996 23.2493 66.7649 22.4804 66.7649 21.5319C66.7649 20.5834 65.996 19.8145 65.0475 19.8145C64.099 19.8145 63.3301 20.5834 63.3301 21.5319C63.3301 22.4804 64.099 23.2493 65.0475 23.2493Z" fill="#2B4EFF"/>
<path d="M58.7506 23.2493C59.6991 23.2493 60.4681 22.4804 60.4681 21.5319C60.4681 20.5834 59.6991 19.8145 58.7506 19.8145C57.8021 19.8145 57.0332 20.5834 57.0332 21.5319C57.0332 22.4804 57.8021 23.2493 58.7506 23.2493Z" fill="#2B4EFF"/>
<path d="M52.4518 23.2493C53.4003 23.2493 54.1692 22.4804 54.1692 21.5319C54.1692 20.5834 53.4003 19.8145 52.4518 19.8145C51.5033 19.8145 50.7344 20.5834 50.7344 21.5319C50.7344 22.4804 51.5033 23.2493 52.4518 23.2493Z" fill="#2B4EFF"/>
<path d="M64.6313 42.9219H13.3659C12.9352 42.9219 12.5859 43.2711 12.5859 43.7019V54.8938C12.5859 55.3246 12.9352 55.6738 13.3659 55.6738H64.6313C65.0621 55.6738 65.4113 55.3246 65.4113 54.8938V43.7019C65.4113 43.2711 65.0621 42.9219 64.6313 42.9219Z" stroke="#2B4EFF" stroke-width="2"/>
</g>
</svg>
