<svg width="78" height="78" viewBox="0 0 78 78" fill="none" xmlns="http://www.w3.org/2000/svg">
<path d="M14.3125 11.9736L14.0391 12.2361V38.8246V65.4131L14.3125 65.6757L14.575 65.949H35.2792C52.1007 65.9381 56.1366 65.9162 56.8038 65.7959C60.5553 65.1287 63.4755 62.4163 64.4927 58.6758C64.8099 57.5055 64.8208 55.2196 64.5255 54.093C63.7162 51.0306 61.649 48.6025 58.8819 47.4651C58.1709 47.1698 56.9788 46.8525 56.3663 46.7869L56.0928 46.7541L56.0382 35.1278L55.9835 23.5124L50.0773 17.6063L44.1712 11.7002H29.3731H14.575L14.3125 11.9736ZM42.9134 18.8641V24.289L43.1869 24.5515L43.4494 24.8249H48.8743H54.2882L54.2663 35.784L54.2336 46.7432L53.4679 46.8745C50.1321 47.4322 47.1571 49.9697 46.0853 53.1853C44.8056 56.9805 45.954 61.1694 48.9618 63.6632L49.5961 64.1991H32.6981H15.789V38.8246V13.4501H29.3512H42.9134V18.8641ZM48.8743 18.9188L53.0304 23.0749H48.8414H44.6634V18.9188C44.6634 16.6329 44.6743 14.7626 44.6963 14.7626C44.7072 14.7626 46.5884 16.6329 48.8743 18.9188ZM57.5147 48.8213C58.7506 49.215 59.6803 49.7947 60.6865 50.8009C62.1193 52.2337 62.863 53.8306 63.0052 55.7665C63.3333 60.5132 59.3959 64.4725 54.6382 64.1554C53.4679 64.0897 52.1445 63.685 51.1383 63.0944C50.2961 62.5913 48.8633 61.1367 48.3492 60.2617C48.1196 59.8679 47.8134 59.157 47.6493 58.6758C47.4086 57.932 47.365 57.6039 47.354 56.4336C47.343 54.8149 47.5071 54.0821 48.1852 52.7149C48.9836 51.1072 50.7445 49.5431 52.4289 48.9307C53.9929 48.3728 55.9726 48.3291 57.5147 48.8213Z" fill="#2B4EFF"/>
<path d="M22.1901 26.8483C21.9166 27.1107 21.9166 27.1327 21.9166 29.1997C21.9166 32.0106 21.7306 31.8247 24.5415 31.8247C26.6087 31.8247 26.6305 31.8247 26.8931 31.5513C27.1665 31.2888 27.1665 31.2669 27.1665 29.1997C27.1665 26.3889 27.3524 26.5748 24.5415 26.5748C22.4744 26.5748 22.4525 26.5748 22.1901 26.8483ZM25.4165 29.1997V30.0747H24.5415H23.6665V29.1997V28.3248H24.5415H25.4165V29.1997Z" fill="#2B4EFF"/>
<path d="M29.1875 28.5976C29.0125 28.7617 28.9141 28.9914 28.9141 29.1992C28.9141 29.407 29.0125 29.6366 29.1875 29.8008L29.45 30.0741H38.1014H46.7527L47.0153 29.8008C47.1902 29.6366 47.2887 29.407 47.2887 29.1992C47.2887 28.9914 47.1902 28.7617 47.0153 28.5976L46.7527 28.3242H38.1014H29.45L29.1875 28.5976Z" fill="#2B4EFF"/>
<path d="M22.1901 34.7233C21.9166 34.9857 21.9166 35.0077 21.9166 37.0747C21.9166 39.8856 21.7306 39.6997 24.5415 39.6997C26.6087 39.6997 26.6305 39.6997 26.8931 39.4263C27.1665 39.1638 27.1665 39.1419 27.1665 37.0747C27.1665 34.2639 27.3524 34.4498 24.5415 34.4498C22.4744 34.4498 22.4525 34.4498 22.1901 34.7233ZM25.4165 37.0747V37.9497H24.5415H23.6665V37.0747V36.1998H24.5415H25.4165V37.0747Z" fill="#2B4EFF"/>
<path d="M29.1875 36.4726C29.0125 36.6367 28.9141 36.8664 28.9141 37.0741C28.9141 37.282 29.0125 37.5116 29.1875 37.6758L29.45 37.9491H38.1014H46.7527L47.0153 37.6758C47.1902 37.5116 47.2887 37.282 47.2887 37.0741C47.2887 36.8664 47.1902 36.6367 47.0153 36.4726L46.7527 36.1992H38.1014H29.45L29.1875 36.4726Z" fill="#2B4EFF"/>
<path d="M22.1901 42.5973C21.9166 42.8598 21.9166 42.8816 21.9166 44.9488C21.9166 47.7596 21.7306 47.5738 24.5415 47.5738C26.6087 47.5738 26.6305 47.5738 26.8931 47.3003C27.1665 47.0378 27.1665 47.0159 27.1665 44.9488C27.1665 42.1379 27.3524 42.3238 24.5415 42.3238C22.4744 42.3238 22.4525 42.3238 22.1901 42.5973ZM25.4165 44.9488V45.8238H24.5415H23.6665V44.9488V44.0738H24.5415H25.4165V44.9488Z" fill="#2B4EFF"/>
<path d="M29.1875 44.3476C29.0125 44.5117 28.9141 44.7414 28.9141 44.9492C28.9141 45.157 29.0125 45.3866 29.1875 45.5508L29.45 45.8242H38.1014H46.7527L47.0153 45.5508C47.1902 45.3866 47.2887 45.157 47.2887 44.9492C47.2887 44.7414 47.1902 44.5117 47.0153 44.3476L46.7527 44.0742H38.1014H29.45L29.1875 44.3476Z" fill="#2B4EFF"/>
<path d="M22.1901 50.4722C21.9166 50.7348 21.9166 50.7566 21.9166 52.8238C21.9166 55.6346 21.7306 55.4487 24.5415 55.4487C27.3524 55.4487 27.1665 55.6346 27.1665 52.8238C27.1665 50.0129 27.3524 50.1988 24.5415 50.1988C22.4744 50.1988 22.4525 50.1988 22.1901 50.4722ZM25.4165 52.8238V53.6988H24.5415H23.6665V52.8238V51.9488H24.5415H25.4165V52.8238Z" fill="#2B4EFF"/>
<path d="M29.1875 52.2226C29.0125 52.3867 28.9141 52.6164 28.9141 52.8241C28.9141 53.032 29.0125 53.2616 29.1875 53.4258L29.45 53.6992H35.0389H40.6279L40.8904 53.4258C41.0654 53.2616 41.1638 53.032 41.1638 52.8241C41.1638 52.6164 41.0654 52.3867 40.8904 52.2226L40.6279 51.9492H35.0389H29.45L29.1875 52.2226Z" fill="#2B4EFF"/>
<path d="M57.1638 54.8148L54.2873 57.6803L52.7233 56.1273C51.6952 55.1101 51.0717 54.5741 50.9186 54.5741C50.3061 54.5741 49.814 55.1429 49.9452 55.6898C49.9889 55.832 50.8968 56.8163 51.9686 57.8881C53.7295 59.6381 53.9592 59.8241 54.2873 59.8241C54.6263 59.8241 54.9326 59.5615 57.9075 56.5757C59.8106 54.6836 61.1887 53.218 61.2325 53.0649C61.3747 52.4961 60.9043 51.9492 60.2699 51.9492C60.1168 51.9492 59.1434 52.8351 57.1638 54.8148Z" fill="#2B4EFF"/>
</svg>
