<svg width="78" height="78" viewBox="0 0 78 78" fill="none" xmlns="http://www.w3.org/2000/svg">
<path d="M58.5 17.5498H50.7C49.6231 17.5498 48.75 18.4229 48.75 19.4998V27.2998C48.75 28.3768 49.6231 29.2498 50.7 29.2498H58.5C59.5769 29.2498 60.45 28.3768 60.45 27.2998V19.4998C60.45 18.4229 59.5769 17.5498 58.5 17.5498Z" stroke="#2B4EFF" stroke-width="2" stroke-linecap="round" stroke-linejoin="round"/>
<path d="M27.3008 17.5498H19.5008C18.4238 17.5498 17.5508 18.4229 17.5508 19.4998V27.2998C17.5508 28.3768 18.4238 29.2498 19.5008 29.2498H27.3008C28.3777 29.2498 29.2508 28.3768 29.2508 27.2998V19.4998C29.2508 18.4229 28.3777 17.5498 27.3008 17.5498Z" stroke="#2B4EFF" stroke-width="2" stroke-linecap="round" stroke-linejoin="round"/>
<path d="M58.5 48.75H50.7C49.6231 48.75 48.75 49.6231 48.75 50.7V58.5C48.75 59.5769 49.6231 60.45 50.7 60.45H58.5C59.5769 60.45 60.45 59.5769 60.45 58.5V50.7C60.45 49.6231 59.5769 48.75 58.5 48.75Z" stroke="#2B4EFF" stroke-width="2" stroke-linecap="round" stroke-linejoin="round"/>
<path d="M27.3008 48.75H19.5008C18.4238 48.75 17.5508 49.6231 17.5508 50.7V58.5C17.5508 59.5769 18.4238 60.45 19.5008 60.45H27.3008C28.3777 60.45 29.2508 59.5769 29.2508 58.5V50.7C29.2508 49.6231 28.3777 48.75 27.3008 48.75Z" stroke="#2B4EFF" stroke-width="2" stroke-linecap="round" stroke-linejoin="round"/>
<path d="M23.4004 48.75V29.25" stroke="#2B4EFF" stroke-width="2" stroke-linecap="round" stroke-linejoin="round"/>
<path d="M48.75 54.5996H29.25" stroke="#2B4EFF" stroke-width="2" stroke-linecap="round" stroke-linejoin="round"/>
<path d="M54.5996 29.25V48.75" stroke="#2B4EFF" stroke-width="2" stroke-linecap="round" stroke-linejoin="round"/>
<path d="M29.25 23.4004H48.75" stroke="#2B4EFF" stroke-width="2" stroke-linecap="round" stroke-linejoin="round"/>
<path d="M39.0015 37.0322C39.4672 37.0322 39.8447 36.6547 39.8447 36.189C39.8447 35.7233 39.4672 35.3457 39.0015 35.3457C38.5357 35.3457 38.1582 35.7233 38.1582 36.189C38.1582 36.6547 38.5357 37.0322 39.0015 37.0322Z" fill="#2B4EFF"/>
<path d="M38.5781 38.7188H39.1403V42.6539H39.7024" fill="#2B4EFF"/>
<path d="M38.5781 38.7188H39.1403V42.6539H39.7024" stroke="#2B4EFF" stroke-width="2" stroke-linecap="round" stroke-linejoin="round"/>
</svg>
