<svg width="78" height="78" viewBox="0 0 78 78" fill="none" xmlns="http://www.w3.org/2000/svg">
<path d="M13.5085 44.2843H20.6595V46.9898H10.1406V30.6445H13.5085V44.2843Z" fill="#2B4EFF"/>
<path d="M35.3092 39.1876C35.3092 40.7967 35.0248 42.2074 34.456 43.4199C33.8872 44.6323 33.0714 45.5678 32.0087 46.2264C30.9534 46.885 29.741 47.2143 28.3714 47.2143C27.0168 47.2143 25.8081 46.8888 24.7453 46.2376C23.6826 45.5865 22.8594 44.6584 22.2755 43.4535C21.6918 42.2411 21.3962 40.8491 21.3887 39.2774V38.4691C21.3887 36.86 21.6768 35.4455 22.2531 34.2256C22.8369 32.9982 23.6564 32.0589 24.7116 31.4078C25.7744 30.7492 26.9868 30.4199 28.3489 30.4199C29.711 30.4199 30.9197 30.7492 31.975 31.4078C33.0377 32.0589 33.8573 32.9982 34.4335 34.2256C35.0173 35.4455 35.3092 36.8562 35.3092 38.4579V39.1876ZM31.8964 38.4467C31.8964 36.7328 31.5896 35.4306 30.9759 34.54C30.3622 33.6494 29.4866 33.2041 28.3489 33.2041C27.2189 33.2041 26.3469 33.6456 25.7332 34.5287C25.1196 35.4044 24.809 36.6916 24.8015 38.3905V39.1876C24.8015 40.8566 25.1083 42.1513 25.722 43.0718C26.3357 43.9924 27.2189 44.4527 28.3714 44.4527C29.5015 44.4527 30.3697 44.0111 30.9759 43.128C31.5821 42.2374 31.889 40.9426 31.8964 39.2437V38.4467Z" fill="#2B4EFF"/>
<path d="M51.2839 44.9242C50.6777 45.6501 49.8208 46.2152 48.7131 46.6193C47.6055 47.016 46.3781 47.2143 45.031 47.2143C43.6165 47.2143 42.3742 46.9075 41.3039 46.2938C40.2412 45.6726 39.4179 44.7745 38.8341 43.5994C38.2579 42.4244 37.9622 41.0436 37.9473 39.457V38.3456C37.9473 36.7141 38.2204 35.3033 38.7667 34.1133C39.3206 32.9158 40.114 32.0028 41.1467 31.3742C42.187 30.738 43.4032 30.4199 44.7952 30.4199C46.7337 30.4199 48.2492 30.8839 49.3418 31.812C50.4345 32.7325 51.0819 34.0759 51.2839 35.8422H48.0059C47.8562 34.9066 47.5232 34.2219 47.0068 33.7878C46.4979 33.3537 45.7944 33.1367 44.8963 33.1367C43.7512 33.1367 42.8793 33.567 42.2806 34.4276C41.6818 35.2884 41.3787 36.5681 41.3712 38.267V39.3111C41.3712 41.025 41.6968 42.3197 42.3479 43.1953C42.999 44.0709 43.9533 44.5088 45.2106 44.5088C46.4754 44.5088 47.3772 44.2393 47.9161 43.7005V40.8828H44.8514V38.4017H51.2839V44.9242Z" fill="#2B4EFF"/>
<path d="M67.4498 39.1876C67.4498 40.7967 67.1654 42.2074 66.5966 43.4199C66.0278 44.6323 65.2121 45.5678 64.1493 46.2264C63.0941 46.885 61.8816 47.2143 60.512 47.2143C59.1574 47.2143 57.9487 46.8888 56.886 46.2376C55.8232 45.5865 55 44.6584 54.4162 43.4535C53.8324 42.2411 53.5368 40.8491 53.5293 39.2774V38.4691C53.5293 36.86 53.8175 35.4455 54.3938 34.2256C54.9775 32.9982 55.797 32.0589 56.8523 31.4078C57.915 30.7492 59.1274 30.4199 60.4896 30.4199C61.8517 30.4199 63.0604 30.7492 64.1156 31.4078C65.1784 32.0589 65.9979 32.9982 66.5742 34.2256C67.1579 35.4455 67.4498 36.8562 67.4498 38.4579V39.1876ZM64.0371 38.4467C64.0371 36.7328 63.7302 35.4306 63.1165 34.54C62.5028 33.6494 61.6272 33.2041 60.4896 33.2041C59.3595 33.2041 58.4876 33.6456 57.8739 34.5287C57.2602 35.4044 56.9496 36.6916 56.9421 38.3905V39.1876C56.9421 40.8566 57.249 42.1513 57.8627 43.0718C58.4764 43.9924 59.3595 44.4527 60.512 44.4527C61.6422 44.4527 62.5103 44.0111 63.1165 43.128C63.7227 42.2374 64.0296 40.9426 64.0371 39.2437V38.4467Z" fill="#2B4EFF"/>
</svg>
