<svg width="78" height="78" viewBox="0 0 78 78" fill="none" xmlns="http://www.w3.org/2000/svg">
<path d="M13.6195 44.9402C17.2646 44.9402 20.2195 41.9853 20.2195 38.3402C20.2195 34.6952 17.2646 31.7402 13.6195 31.7402C9.97445 31.7402 7.01953 34.6952 7.01953 38.3402C7.01953 41.9853 9.97445 44.9402 13.6195 44.9402Z" fill="#2B4EFF"/>
<path d="M39.3593 47.5799C44.0979 47.5799 47.9393 43.7385 47.9393 38.9999C47.9393 34.2613 44.0979 30.4199 39.3593 30.4199C34.6207 30.4199 30.7793 34.2613 30.7793 38.9999C30.7793 43.7385 34.6207 47.5799 39.3593 47.5799Z" fill="#2B4EFF"/>
<path d="M65.1 44.9402C68.7451 44.9402 71.7 41.9853 71.7 38.3402C71.7 34.6952 68.7451 31.7402 65.1 31.7402C61.4549 31.7402 58.5 34.6952 58.5 38.3402C58.5 41.9853 61.4549 44.9402 65.1 44.9402Z" fill="#2B4EFF"/>
</svg>
