<svg width="78" height="78" viewBox="0 0 78 78" fill="none" xmlns="http://www.w3.org/2000/svg">
<path d="M23.2933 35.5004C23.2875 33.4341 23.6895 31.387 24.4763 29.4763C25.263 27.5656 26.419 25.829 27.8781 24.3659C29.3371 22.9027 31.0705 21.7419 32.979 20.9498C34.8874 20.1577 36.9334 19.75 38.9997 19.75C41.066 19.75 43.112 20.1577 45.0205 20.9498C46.929 21.7419 48.6624 22.9027 50.1214 24.3659C51.5805 25.829 52.7365 27.5656 53.5232 29.4763C54.31 31.387 54.712 33.4341 54.7062 35.5004C54.7062 43.3351 56.3453 47.8814 57.789 50.3662C57.9446 50.6317 58.0273 50.9336 58.029 51.2413C58.0306 51.549 57.9511 51.8516 57.7984 52.1188C57.6457 52.386 57.4253 52.6081 57.1594 52.7629C56.8934 52.9177 56.5914 52.9996 56.2837 53.0004H21.714C21.4063 52.9996 21.1042 52.9177 20.8383 52.7628C20.5723 52.608 20.3519 52.3858 20.1992 52.1186C20.0466 51.8514 19.9671 51.5487 19.9688 51.2409C19.9705 50.9332 20.0533 50.6314 20.2089 50.3659C21.6534 47.8809 23.2933 43.3347 23.2933 35.5004Z" stroke="#2B4EFF" stroke-width="2" stroke-linecap="round" stroke-linejoin="round"/>
<path d="M32 53V54.75C32 56.6065 32.7375 58.387 34.0503 59.6997C35.363 61.0125 37.1435 61.75 39 61.75C40.8565 61.75 42.637 61.0125 43.9497 59.6997C45.2625 58.387 46 56.6065 46 54.75V53" stroke="#2B4EFF" stroke-width="2" stroke-linecap="round" stroke-linejoin="round"/>
<path d="M51.125 16.248C54.6859 18.496 57.5565 21.6842 59.4197 25.4607" stroke="#2B4EFF" stroke-width="2" stroke-linecap="round" stroke-linejoin="round"/>
<path d="M18.5781 25.4608C20.4413 21.6842 23.3119 18.496 26.8728 16.248" stroke="#2B4EFF" stroke-width="2" stroke-linecap="round" stroke-linejoin="round"/>
</svg>
