<svg width="79" height="78" viewBox="0 0 79 78" fill="none" xmlns="http://www.w3.org/2000/svg">
<mask id="mask0_436_8679" style="mask-type:alpha" maskUnits="userSpaceOnUse" x="8" y="17" width="63" height="45">
<path d="M21.367 17.5492C17.6791 18.1475 14.9437 20.5165 14.0279 23.9479C13.7348 25.0225 13.7348 27.1473 14.0279 28.2219C14.3087 29.2355 14.8461 30.3833 15.3956 31.1038C15.6276 31.4091 15.8108 31.6777 15.7864 31.69C15.7619 31.7144 15.3345 31.9342 14.8338 32.1906C13.4662 32.8745 12.6724 33.4362 11.72 34.3887C10.2302 35.8662 9.15558 37.7346 8.58166 39.8227L8.30078 40.8607V49.6528V58.445L8.64273 59.1411C9.09451 60.0569 9.83941 60.7774 10.8041 61.2414L11.5978 61.62H20.9395H30.2812L30.6598 61.3513C31.4901 60.753 31.5023 60.7163 31.539 57.3705L31.5756 54.342L33.3584 56.8819C34.3231 58.2741 35.3612 59.654 35.6298 59.947C36.277 60.6186 37.6324 61.2903 38.6826 61.4734C40.2823 61.7421 42.2483 61.0949 43.3718 59.9348C43.6526 59.654 44.6784 58.2741 45.6431 56.8819L47.426 54.342L47.4626 57.3705C47.4992 60.7163 47.5115 60.753 48.3418 61.3513L48.7204 61.62H58.0621H67.4037L68.1974 61.2414C69.1622 60.7774 69.9071 60.0569 70.3588 59.1411L70.7008 58.445V49.6528V40.8607L70.4199 39.8227C69.5041 36.4768 67.3549 33.7903 64.3386 32.2516C63.8136 31.983 63.3373 31.751 63.2763 31.7265C63.203 31.7021 63.3495 31.4335 63.5938 31.116C64.1555 30.3833 64.6928 29.2477 64.9736 28.2219C65.2668 27.1473 65.2668 25.0225 64.9736 23.9479C64.1677 20.9317 61.701 18.4895 58.7336 17.769C57.6102 17.4881 55.6808 17.4881 54.6428 17.7568C52.0663 18.4284 50.027 20.138 48.9035 22.5437C48.2808 23.8625 48.122 24.6318 48.122 26.146C48.1342 28.2219 48.7814 29.9926 50.1002 31.6045C50.4666 32.0318 50.7352 32.4105 50.7108 32.4349C50.6986 32.4593 50.259 32.7523 49.7461 33.0943C49.2332 33.4362 48.4395 34.1078 47.9755 34.6085C47.487 35.1213 45.5576 37.7467 43.3596 40.8973C41.2836 43.8647 39.5496 46.2947 39.5008 46.2947C39.452 46.2947 37.7179 43.8647 35.642 40.8973C33.4928 37.8201 31.5146 35.1213 31.0383 34.6207C30.5865 34.1322 29.7927 33.4484 29.2676 33.0943C28.7548 32.7402 28.3029 32.4349 28.2908 32.4226C28.2664 32.4105 28.535 32.0318 28.9014 31.6045C31.136 28.8936 31.5268 25.3034 29.9393 22.1773C29.463 21.237 28.535 20.0648 27.7901 19.4664C26.972 18.8069 25.4333 18.0376 24.4198 17.7812C23.6382 17.5858 21.9775 17.4637 21.367 17.5492ZM23.9313 21.4691C26.6667 22.4215 27.9732 25.511 26.7521 28.1609C25.8729 30.078 23.6016 31.2869 21.5745 30.9207C18.9369 30.4322 17.0685 27.9045 17.4959 25.4133C18.0455 22.336 21.0738 20.4677 23.9313 21.4691ZM58.2452 21.4691C60.4799 22.2506 61.8842 24.5829 61.4812 26.8664C61.0172 29.5285 58.3918 31.4091 55.8518 30.9207C53.2141 30.4077 51.419 27.9289 51.8342 25.3522C52.3105 22.3727 55.4122 20.48 58.2452 21.4691ZM25.1524 35.1091C26.3858 35.5365 27.3261 36.1105 28.1686 36.9286C28.767 37.5269 40.8318 54.574 41.1737 55.3189C41.5523 56.137 41.1493 57.2361 40.3068 57.6391C39.6595 57.9565 39.3421 57.9565 38.7192 57.6513C38.2796 57.4437 37.7668 56.772 34.6163 52.2661C32.3572 49.0301 30.8796 47.0274 30.6475 46.8809C30.4156 46.7465 30.0492 46.6611 29.634 46.6611C29.0478 46.6611 28.9379 46.7099 28.4739 47.1373L27.9611 47.6258L27.9 52.7912L27.8389 57.9565L20.1214 57.9932C12.5259 58.0176 12.3916 58.0176 12.1474 57.7734C11.9031 57.5292 11.9031 57.3705 11.9031 49.775C11.9031 41.0194 11.9154 40.8973 12.7823 39.1022C13.4173 37.759 14.8338 36.3058 16.1405 35.6342C17.7279 34.8039 18.424 34.694 21.489 34.7306C24.0778 34.7672 24.2122 34.7794 25.1524 35.1091ZM61.0416 34.9382C62.5192 35.3167 63.5938 35.9395 64.7417 37.0873C65.5231 37.8689 65.8284 38.2841 66.2192 39.1022C67.0862 40.8973 67.0984 41.0194 67.0984 49.775C67.0984 57.3705 67.0984 57.5292 66.8542 57.7734C66.61 58.0176 66.4757 58.0176 58.8802 57.9932L51.1626 57.9565L51.1016 52.7912L51.0405 47.6258L50.5276 47.1373C50.0636 46.7099 49.9537 46.6611 49.3675 46.6611C48.9524 46.6611 48.586 46.7465 48.354 46.8809C48.1342 47.0152 47.1939 48.2363 46.0582 49.8726C44.9959 51.3991 44.08 52.6691 44.0312 52.6935C43.8847 52.7912 41.7965 49.7261 41.8698 49.5308C41.9553 49.3109 49.8316 38.0399 50.2834 37.5025C51.2847 36.3059 52.7989 35.3656 54.3986 34.9504C55.7419 34.5962 59.6862 34.5841 61.0416 34.9382Z" fill="white"/>
</mask>
<g mask="url(#mask0_436_8679)">
<path d="M21.367 17.5492C17.6791 18.1475 14.9437 20.5165 14.0279 23.9479C13.7348 25.0225 13.7348 27.1473 14.0279 28.2219C14.3087 29.2355 14.8461 30.3833 15.3956 31.1038C15.6276 31.4091 15.8108 31.6777 15.7864 31.69C15.7619 31.7144 15.3345 31.9342 14.8338 32.1906C13.4662 32.8745 12.6724 33.4362 11.72 34.3887C10.2302 35.8662 9.15558 37.7346 8.58166 39.8227L8.30078 40.8607V49.6528V58.445L8.64273 59.1411C9.09451 60.0569 9.83941 60.7774 10.8041 61.2414L11.5978 61.62H20.9395H30.2812L30.6598 61.3513C31.4901 60.753 31.5023 60.7163 31.539 57.3705L31.5756 54.342L33.3584 56.8819C34.3231 58.2741 35.3612 59.654 35.6298 59.947C36.277 60.6186 37.6324 61.2903 38.6826 61.4734C40.2823 61.7421 42.2483 61.0949 43.3718 59.9348C43.6526 59.654 44.6784 58.2741 45.6431 56.8819L47.426 54.342L47.4626 57.3705C47.4992 60.7163 47.5115 60.753 48.3418 61.3513L48.7204 61.62H58.0621H67.4037L68.1974 61.2414C69.1622 60.7774 69.9071 60.0569 70.3588 59.1411L70.7008 58.445V49.6528V40.8607L70.4199 39.8227C69.5041 36.4768 67.3549 33.7903 64.3386 32.2516C63.8136 31.983 63.3373 31.751 63.2763 31.7265C63.203 31.7021 63.3495 31.4335 63.5938 31.116C64.1555 30.3833 64.6928 29.2477 64.9736 28.2219C65.2668 27.1473 65.2668 25.0225 64.9736 23.9479C64.1677 20.9317 61.701 18.4895 58.7336 17.769C57.6102 17.4881 55.6808 17.4881 54.6428 17.7568C52.0663 18.4284 50.027 20.138 48.9035 22.5437C48.2808 23.8625 48.122 24.6318 48.122 26.146C48.1342 28.2219 48.7814 29.9926 50.1002 31.6045C50.4666 32.0318 50.7352 32.4105 50.7108 32.4349C50.6986 32.4593 50.259 32.7523 49.7461 33.0943C49.2332 33.4362 48.4395 34.1078 47.9755 34.6085C47.487 35.1213 45.5576 37.7467 43.3596 40.8973C41.2836 43.8647 39.5496 46.2947 39.5008 46.2947C39.452 46.2947 37.7179 43.8647 35.642 40.8973C33.4928 37.8201 31.5146 35.1213 31.0383 34.6207C30.5865 34.1322 29.7927 33.4484 29.2676 33.0943C28.7548 32.7402 28.3029 32.4349 28.2908 32.4226C28.2664 32.4105 28.535 32.0318 28.9014 31.6045C31.136 28.8936 31.5268 25.3034 29.9393 22.1773C29.463 21.237 28.535 20.0648 27.7901 19.4664C26.972 18.8069 25.4333 18.0376 24.4198 17.7812C23.6382 17.5858 21.9775 17.4637 21.367 17.5492ZM23.9313 21.4691C26.6667 22.4215 27.9732 25.511 26.7521 28.1609C25.8729 30.078 23.6016 31.2869 21.5745 30.9207C18.9369 30.4322 17.0685 27.9045 17.4959 25.4133C18.0455 22.336 21.0738 20.4677 23.9313 21.4691ZM58.2452 21.4691C60.4799 22.2506 61.8842 24.5829 61.4812 26.8664C61.0172 29.5285 58.3918 31.4091 55.8518 30.9207C53.2141 30.4077 51.419 27.9289 51.8342 25.3522C52.3105 22.3727 55.4122 20.48 58.2452 21.4691ZM25.1524 35.1091C26.3858 35.5365 27.3261 36.1105 28.1686 36.9286C28.767 37.5269 40.8318 54.574 41.1737 55.3189C41.5523 56.137 41.1493 57.2361 40.3068 57.6391C39.6595 57.9565 39.3421 57.9565 38.7192 57.6513C38.2796 57.4437 37.7668 56.772 34.6163 52.2661C32.3572 49.0301 30.8796 47.0274 30.6475 46.8809C30.4156 46.7465 30.0492 46.6611 29.634 46.6611C29.0478 46.6611 28.9379 46.7099 28.4739 47.1373L27.9611 47.6258L27.9 52.7912L27.8389 57.9565L20.1214 57.9932C12.5259 58.0176 12.3916 58.0176 12.1474 57.7734C11.9031 57.5292 11.9031 57.3705 11.9031 49.775C11.9031 41.0194 11.9154 40.8973 12.7823 39.1022C13.4173 37.759 14.8338 36.3058 16.1405 35.6342C17.7279 34.8039 18.424 34.694 21.489 34.7306C24.0778 34.7672 24.2122 34.7794 25.1524 35.1091ZM61.0416 34.9382C62.5192 35.3167 63.5938 35.9395 64.7417 37.0873C65.5231 37.8689 65.8284 38.2841 66.2192 39.1022C67.0862 40.8973 67.0984 41.0194 67.0984 49.775C67.0984 57.3705 67.0984 57.5292 66.8542 57.7734C66.61 58.0176 66.4757 58.0176 58.8802 57.9932L51.1626 57.9565L51.1016 52.7912L51.0405 47.6258L50.5276 47.1373C50.0636 46.7099 49.9537 46.6611 49.3675 46.6611C48.9524 46.6611 48.586 46.7465 48.354 46.8809C48.1342 47.0152 47.1939 48.2363 46.0582 49.8726C44.9959 51.3991 44.08 52.6691 44.0312 52.6935C43.8847 52.7912 41.7965 49.7261 41.8698 49.5308C41.9553 49.3109 49.8316 38.0399 50.2834 37.5025C51.2847 36.3059 52.7989 35.3656 54.3986 34.9504C55.7419 34.5962 59.6862 34.5841 61.0416 34.9382Z" stroke="#2B4EFF" stroke-width="2"/>
</g>
</svg>
