<svg width="78" height="78" viewBox="0 0 78 78" fill="none" xmlns="http://www.w3.org/2000/svg">
<path d="M49.9802 8.44052C47.3479 9.12513 45.3766 11.12 44.7274 13.7522C44.5032 14.6494 44.5386 16.361 44.7865 17.2344C45.2822 18.9342 46.2973 20.327 47.761 21.2949C48.8824 22.0504 49.9093 22.3809 51.3494 22.4517C53.3324 22.558 55.2211 21.8615 56.6021 20.5159C58.054 19.0995 58.656 17.7419 58.7504 15.6999C58.8212 14.2008 58.6678 13.41 58.054 12.1352C57.4992 10.9783 56.071 9.56193 54.8906 8.98348C53.297 8.21628 51.5737 8.01558 49.9802 8.44052ZM53.2853 11.3915C54.206 11.7456 55.1148 12.6073 55.5516 13.5398C55.8585 14.2008 55.8939 14.4133 55.8939 15.4048C55.8939 16.7386 55.6578 17.3525 54.7489 18.3085C53.3207 19.8195 51.0543 20.0556 49.2837 18.887C47.1237 17.4351 46.7813 14.3543 48.5637 12.4775C49.8385 11.1318 51.5264 10.7423 53.2853 11.3915Z" fill="#2B4EFF"/>
<path d="M23.9962 18.0017C21.659 18.6156 19.7586 20.4334 18.9441 22.8413C18.6254 23.762 18.6254 26.052 18.9441 26.9728C19.5343 28.7197 20.9272 30.4194 22.4026 31.1985C25.2238 32.6858 28.5643 32.1782 30.8188 29.9236C33.6518 27.1025 33.6518 22.7115 30.8188 19.8904C28.9892 18.0608 26.4632 17.3644 23.9962 18.0017ZM27.1832 20.8347C28.2574 21.1534 29.4495 22.3456 29.8391 23.4906C30.0752 24.2106 30.0988 25.4264 29.8981 26.1464C29.544 27.3622 28.2574 28.6489 27.0416 29.003C26.298 29.2155 25.0939 29.1919 24.3857 28.944C23.2171 28.5427 22.0485 27.3622 21.7062 26.2291C21.6236 25.9576 21.5527 25.3084 21.5527 24.789C21.5646 24.0336 21.6236 23.7148 21.8714 23.1837C22.4145 21.9915 23.4414 21.1062 24.669 20.7521C25.2592 20.5868 26.4868 20.6222 27.1832 20.8347Z" fill="#2B4EFF"/>
<path d="M45.8972 24.7294C43.5482 25.0009 41.3054 26.1458 39.8181 27.8574C38.8857 28.9315 38.803 29.8168 39.5821 30.466C39.9008 30.7258 40.0306 30.7612 40.5146 30.7258C41.034 30.6667 41.1402 30.5959 42.0491 29.6752C43.1115 28.601 43.9968 28.0699 45.2716 27.7394C46.2985 27.4796 56.9928 27.4796 57.9961 27.7394C59.6605 28.1761 61.3838 29.5335 62.1865 31.0562C62.8711 32.3665 62.9184 32.7914 62.9184 37.9143V42.5532H61.6199H60.3215V38.2448C60.3215 33.5586 60.3097 33.417 59.6723 33.1337C59.1884 32.9094 58.8224 32.9685 58.4093 33.3344L58.0198 33.6767L57.9843 38.1149L57.9489 42.5414L54.0064 42.5768L50.0521 42.6123L49.698 42.9664C49.2377 43.4267 49.1314 44.0287 49.4029 44.5953C49.7806 45.4097 49.6036 45.3862 57.099 45.3862C63.3787 45.3862 63.839 45.3625 64.2758 45.1618C64.9014 44.8785 65.2555 44.5126 65.527 43.9224C65.7277 43.4739 65.7513 43.0608 65.7513 38.1858C65.7513 32.5436 65.7041 32.0832 65.1257 30.6313C64.6181 29.3919 64.0751 28.601 62.9184 27.4442C61.974 26.4881 61.6199 26.2284 60.6757 25.7563C58.5863 24.7176 58.4565 24.6939 52.2358 24.6585C49.2494 24.6468 46.4047 24.6822 45.8972 24.7294Z" fill="#2B4EFF"/>
<path d="M40.9905 31.6937C38.4409 32.3783 36.4697 34.3495 35.8322 36.8284C35.608 37.7254 35.608 39.4724 35.8322 40.3695C36.3634 42.447 37.8035 44.1586 39.8102 45.0793C42.2417 46.2006 45.0039 45.8701 47.1876 44.1822C49.088 42.7185 50.1622 40.0981 49.8198 37.7254C49.4185 34.8926 47.6597 32.7678 44.8976 31.7999C43.8707 31.434 42.1001 31.3868 40.9905 31.6937ZM44.5553 34.7391C47.8604 36.2972 47.825 40.9007 44.5081 42.4824C43.8353 42.8011 43.611 42.8483 42.7375 42.8483C41.8876 42.8483 41.628 42.7893 41.026 42.5178C39.4324 41.7742 38.4881 40.3223 38.4881 38.5871C38.4881 37.4421 38.8777 36.486 39.7157 35.6126C40.9434 34.3141 42.9028 33.96 44.5553 34.7391Z" fill="#2B4EFF"/>
<path d="M20.0715 34.3021C17.9232 34.5264 16.07 35.4353 14.4529 37.0524C13.2607 38.2445 12.6114 39.2833 12.0803 40.8414L11.7498 41.7857L11.7144 47.4162C11.679 52.846 11.6907 53.0584 11.9151 53.5069C12.2219 54.0972 12.8593 54.6638 13.4259 54.829C13.7328 54.9234 15.9402 54.9471 20.5673 54.9234L27.2719 54.888L27.626 54.5339C28.0863 54.0735 28.1926 53.4715 27.9211 52.9049C27.567 52.1377 27.4017 52.1141 23.2113 52.1141H19.4813V47.8529C19.4813 44.2527 19.4577 43.5327 19.3042 43.2022C18.8794 42.3287 17.6989 42.3405 17.2504 43.2258C17.1677 43.4028 17.1205 44.8547 17.1205 47.7939V52.1141H15.8222H14.5237V47.4162C14.5237 43.6389 14.5591 42.5884 14.7008 42.0454C15.2791 39.8027 17.2031 37.8786 19.4459 37.3003C20.4611 37.0287 31.179 37.0406 32.1114 37.312C32.4656 37.4065 33.0322 37.5245 33.3627 37.5599C33.9057 37.619 34.0001 37.5836 34.3424 37.2885C35.027 36.6628 35.027 35.7539 34.3424 35.1874C33.8585 34.7742 32.6426 34.4201 31.2852 34.2902C29.9395 34.1605 21.3227 34.1605 20.0715 34.3021Z" fill="#2B4EFF"/>
<path d="M37.4267 47.9365C35.5617 48.1017 33.3779 48.987 31.9733 50.1674C30.5332 51.3596 29.4237 53.1184 28.9043 55.007C28.6564 55.9159 28.6446 56.152 28.6328 61.3929V66.8344L28.9869 67.4128C29.2584 67.8496 29.5063 68.0739 29.9785 68.31L30.6277 68.6405H42.7384H54.8492L55.4512 68.3454C56.1476 67.9913 56.5962 67.4128 56.7733 66.6338C56.9385 65.9491 56.9385 57.9698 56.785 56.4943C56.5372 54.2043 55.6401 52.2685 54.0937 50.7221C53.2203 49.8487 52.5357 49.3766 51.3198 48.81C49.502 47.9719 49.2424 47.9365 43.2696 47.9128C40.354 47.901 37.7218 47.9128 37.4267 47.9365ZM49.7618 51.2061C51.4497 51.8672 52.9016 53.319 53.5625 55.007L53.8931 55.8333L53.9285 60.8145L53.9639 65.8075H52.6537H51.3552V61.3693V56.931L50.9893 56.5887C50.4936 56.1283 49.9624 56.1283 49.4431 56.5887L49.0535 56.931L49.0181 61.3693L48.9827 65.8075H42.6794H36.3643V61.4991C36.3643 56.813 36.3525 56.6714 35.7151 56.3881C35.2311 56.1637 34.8652 56.2228 34.4521 56.5887L34.0625 56.931L34.0271 61.3693L33.9917 65.8075H32.6933H31.3831L31.4421 61.0506C31.4893 56.0575 31.513 55.8569 32.0796 54.5938C32.6461 53.319 34.039 51.9262 35.302 51.3832C36.565 50.8402 36.683 50.8284 42.9745 50.852L48.9354 50.8757L49.7618 51.2061Z" fill="#2B4EFF"/>
</svg>
