<svg width="78" height="78" viewBox="0 0 78 78" fill="none" xmlns="http://www.w3.org/2000/svg">
<path d="M28.5724 12.0012C28.2845 12.3023 28.2845 12.3677 28.2845 16.5168V20.7313H19.3973C9.77715 20.7313 9.94734 20.7182 8.99184 21.4512C8.75628 21.6344 8.38976 22.0925 8.18033 22.459L7.80078 23.1527V43.4401V63.7274L8.08876 64.2641C8.4421 64.9185 9.07039 65.5337 9.68557 65.8478C10.1306 66.0703 11.5048 66.0834 38.8863 66.0834C66.8305 66.0834 67.6289 66.0703 68.1132 65.8347C68.7545 65.5206 69.3174 64.9578 69.6838 64.2641L69.9718 63.7274V43.4401V23.1527L69.5922 22.459C69.3828 22.0925 69.0163 21.6344 68.7807 21.4512C67.8252 20.7182 67.9954 20.7313 58.3752 20.7313H49.488V16.5037V12.263L49.187 11.9881L48.886 11.7002H38.8732H28.8473L28.5724 12.0012ZM47.6557 17.132V20.7313H46.8049H45.9541V18.3099C45.9541 15.9016 45.9541 15.8755 45.6269 15.5614L45.3128 15.2341H38.8863H32.4598L32.1456 15.5614C31.8184 15.8755 31.8184 15.9016 31.8184 18.3099V20.7313H30.9676H30.1169V17.132V13.5326H38.8863H47.6557V17.132ZM44.1217 18.8989V20.7313H38.8863H33.6508V18.8989V17.0665H38.8863H44.1217V18.8989ZM67.4326 22.7732C68.1786 23.1527 68.2048 23.3229 68.2048 29.2651V34.6707L63.218 38.5711L58.2313 42.4584H56.1633H54.0953L54.0167 41.6993C53.2052 34.8539 47.9305 29.4091 41.1113 28.3751C32.787 27.1316 25.0254 32.943 23.8082 41.3459L23.6511 42.4584H21.5962H19.5413L14.5545 38.5711L9.56772 34.6707V29.2913C9.56772 25.6265 9.62013 23.781 9.7117 23.493C9.80335 23.2575 10.052 22.9564 10.2746 22.8124C10.6672 22.5768 11.4002 22.5637 38.8601 22.5637C64.1866 22.5637 67.0791 22.5899 67.4326 22.7732ZM40.7972 30.1683C45.3782 30.7965 49.4749 33.977 51.2288 38.2701C52.0535 40.2857 52.1712 40.9532 52.1581 43.5056C52.1581 45.5997 52.1189 45.9008 51.7917 46.974C51.2026 48.9504 49.9592 51.2671 49.043 52.1309L48.7027 52.4451V51.3456C48.7027 49.0944 48.2708 47.7724 47.2368 46.8431C46.6609 46.3065 45.9411 45.94 44.2264 45.2856L42.9569 44.8013L43.4804 44.1207C45.8363 41.0187 44.3573 36.4246 40.6009 35.2597C37.2371 34.2126 33.8341 36.3199 33.232 39.8276C32.9702 41.3982 33.4414 43.2045 34.423 44.317L34.8419 44.7882L33.4283 45.3379C31.5828 46.0578 30.8499 46.4635 30.3132 47.0525C29.4101 48.0604 29.0829 49.186 29.0698 51.3587L29.0567 52.4713L28.4939 51.843C27.473 50.7043 26.4259 48.6493 25.9023 46.7122C25.5228 45.3641 25.4442 42.4846 25.7322 40.9532C26.1511 38.6497 27.4468 36.0581 29.0567 34.3042C29.4363 33.8984 30.2216 33.2048 30.7975 32.7598C33.7032 30.587 37.224 29.6709 40.7972 30.1683ZM40.6663 37.2623C42.0145 37.9428 42.7474 39.1863 42.7343 40.7569C42.7212 41.948 42.4857 42.5238 41.6873 43.3747C39.8025 45.3772 36.5565 44.8536 35.3262 42.3406C34.9204 41.5291 34.9073 40.037 35.3 39.1732C35.7973 38.0999 36.6612 37.3277 37.8392 36.9481C38.4805 36.7387 39.9596 36.8958 40.6663 37.2623ZM14.2535 40.6522L18.7952 44.2254L21.2035 44.2909L23.6118 44.3563L23.8344 45.6651C24.2008 47.864 24.7898 49.5525 25.7584 51.1493C28.0227 54.9057 31.5828 57.458 35.8759 58.3742C37.4072 58.7014 40.3653 58.7014 41.8967 58.3742C46.1897 57.458 49.7498 54.9057 52.0141 51.1493C52.9828 49.5394 53.5717 47.8509 53.9251 45.6651L54.1476 44.3563L56.5559 44.2909L58.9773 44.2254L63.5191 40.6522C66.0321 38.702 68.1001 37.0921 68.1393 37.0921C68.1786 37.0921 68.2048 42.9296 68.2048 50.0498C68.2048 64.251 68.231 63.7013 67.4326 64.107C67.0791 64.2903 64.1866 64.3164 38.8863 64.3164C13.586 64.3164 10.6933 64.2903 10.34 64.107C9.54159 63.7013 9.56772 64.251 9.56772 50.0498C9.56772 42.9296 9.59392 37.0921 9.63316 37.0921C9.67247 37.0921 11.7405 38.702 14.2535 40.6522ZM38.8863 46.4112C39.5538 46.4112 40.2082 46.3327 40.5223 46.2149C41.059 46.0186 41.059 46.0186 43.3233 46.9085C46.7133 48.2436 46.7656 48.309 46.8442 51.8299L46.8965 54.199L45.928 54.801C44.7369 55.547 43.4411 56.0837 41.9359 56.4763C40.9935 56.7251 40.4308 56.7774 38.8863 56.7774C37.3418 56.7774 36.779 56.7251 35.8366 56.4763C34.3314 56.0837 33.0357 55.547 31.8446 54.801L30.8761 54.199L30.9284 51.8299C31.007 48.309 31.0593 48.2436 34.4492 46.9085C36.7136 46.0186 36.7136 46.0186 37.2502 46.2149C37.5643 46.3327 38.2188 46.4112 38.8863 46.4112Z" fill="#2B4EFF"/>
<path d="M38.8763 57.3433C46.6532 57.3433 52.9576 51.0389 52.9576 43.262C52.9576 35.4851 46.6532 29.1807 38.8763 29.1807C31.0993 29.1807 24.7949 35.4851 24.7949 43.262C24.7949 51.0389 31.0993 57.3433 38.8763 57.3433Z" stroke="#2B4EFF" stroke-width="3"/>
</svg>
