<svg width="78" height="78" viewBox="0 0 78 78" fill="none" xmlns="http://www.w3.org/2000/svg">
<path d="M30.1535 35.4502H23.5187V28.3564H19.0956V35.4502H12.4609V40.1793H19.0956V47.2731H23.5187V40.1793H30.1535V35.4502Z" fill="#2B4EFF"/>
<path d="M52.2664 37.8174C55.9376 37.8174 58.879 34.6488 58.879 30.7236C58.879 26.7984 55.9376 23.6299 52.2664 23.6299C51.5587 23.6299 50.8731 23.7481 50.2539 23.9609C51.5145 25.8763 52.2443 28.1935 52.2443 30.7236C52.2443 33.2537 51.4924 35.5474 50.2539 37.4863C50.8731 37.6991 51.5587 37.8174 52.2664 37.8174Z" stroke="#2B4EFF" stroke-width="2"/>
<path d="M41.2128 37.8174C44.884 37.8174 47.8254 34.6488 47.8254 30.7236C47.8254 26.7984 44.884 23.6299 41.2128 23.6299C37.5416 23.6299 34.5781 26.7984 34.5781 30.7236C34.5781 34.6488 37.5416 37.8174 41.2128 37.8174Z" stroke="#2B4EFF" stroke-width="2"/>
<path d="M55.8516 42.9248C57.6871 44.651 58.9035 46.85 58.9035 49.6402V54.3694H65.5382V49.6402C65.5382 45.9988 60.2968 43.7524 55.8516 42.9248Z" stroke="#2B4EFF" stroke-width="2"/>
<path d="M41.2108 42.5469C36.7876 42.5469 27.9414 44.9114 27.9414 49.6406V54.3698H54.4802V49.6406C54.4802 44.9114 45.6339 42.5469 41.2108 42.5469Z" stroke="#2B4EFF" stroke-width="2"/>
</svg>
