<svg width="78" height="78" viewBox="0 0 78 78" fill="none" xmlns="http://www.w3.org/2000/svg">
<path d="M63.9591 17.1602H14.8191C14.3883 17.1602 14.0391 17.5094 14.0391 17.9402V34.3202C14.0391 34.7509 14.3883 35.1002 14.8191 35.1002H63.9591C64.3898 35.1002 64.7391 34.7509 64.7391 34.3202V17.9402C64.7391 17.5094 64.3898 17.1602 63.9591 17.1602Z" stroke="#2B4EFF" stroke-width="2"/>
<path d="M63.9591 40.5596H14.8191C14.3883 40.5596 14.0391 40.9088 14.0391 41.3396V49.9196C14.0391 50.3504 14.3883 50.6996 14.8191 50.6996H63.9591C64.3898 50.6996 64.7391 50.3504 64.7391 49.9196V41.3396C64.7391 40.9088 64.3898 40.5596 63.9591 40.5596Z" stroke="#2B4EFF" stroke-width="2"/>
<path d="M63.9591 56.1602H14.8191C14.3883 56.1602 14.0391 56.5094 14.0391 56.9402V59.2802C14.0391 59.7109 14.3883 60.0602 14.8191 60.0602H63.9591C64.3898 60.0602 64.7391 59.7109 64.7391 59.2802V56.9402C64.7391 56.5094 64.3898 56.1602 63.9591 56.1602Z" stroke="#2B4EFF" stroke-width="2"/>
</svg>
