<svg width="32" height="32" viewBox="0 0 32 32" fill="none" xmlns="http://www.w3.org/2000/svg">
<path fill-rule="evenodd" clip-rule="evenodd" d="M16 8C17.48 8 18.6667 6.8 18.6667 5.33333C18.6667 4.82667 18.5333 4.36 18.28 3.96L16 0L13.72 3.96C13.4667 4.36 13.3333 4.82667 13.3333 5.33333C13.3333 6.8 14.5333 8 16 8ZM22.1333 21.32L20.7067 19.8933L19.2667 21.32C17.5333 23.0533 14.4933 23.0667 12.7467 21.32L11.32 19.8933L9.86667 21.32C9 22.1867 7.84 22.6667 6.61333 22.6667C5.64 22.6667 4.74667 22.36 4 21.8533V28C4 28.7333 4.6 29.3333 5.33333 29.3333H26.6667C27.4 29.3333 28 28.7333 28 28V21.8533C27.2533 22.36 26.36 22.6667 25.3867 22.6667C24.16 22.6667 23 22.1867 22.1333 21.32ZM17.3333 12H24C26.2133 12 28 13.7867 27.9867 16V18.0533C27.9867 19.4933 26.8133 20.6667 25.3733 20.6667C24.68 20.6667 24.0267 20.4 23.5333 19.9067L20.6933 17.0667L17.84 19.9067C16.8533 20.8933 15.1333 20.8933 14.1467 19.9067L11.3067 17.0667L8.45333 19.9067C7.97333 20.4 7.30667 20.6667 6.61333 20.6667C5.17333 20.6667 4 19.4933 4 18.0533V16C4 13.7867 5.78667 12 8 12H14.6667V9.33333H17.3333V12Z" fill="#FF9F0D"/>
</svg>
