<svg width="25" height="25" viewBox="0 0 25 25" fill="none" xmlns="http://www.w3.org/2000/svg">
<path d="M21.138 10.6531C21.138 5.96006 17.3488 2.14009 12.688 2.14009C8.02707 2.14009 4.23796 5.96006 4.23796 10.6531C4.23796 13.5415 5.88834 16.3841 7.73996 18.4917C8.66839 19.5485 9.65498 20.4293 10.5263 21.0476C10.9618 21.3567 11.3717 21.6024 11.7337 21.7717C12.091 21.9387 12.4199 22.0401 12.688 22.0401C12.956 22.0401 13.285 21.9387 13.6422 21.7717C14.0042 21.6024 14.4141 21.3567 14.8496 21.0476C15.7209 20.4293 16.7075 19.5485 17.636 18.4917C19.4876 16.3841 21.138 13.5415 21.138 10.6531ZM6.13796 10.6531C6.13796 7.00577 9.07818 4.04009 12.688 4.04009C16.2977 4.04009 19.238 7.00577 19.238 10.6531C19.238 12.9696 17.8701 15.282 16.3338 17.0623C15.5687 17.9489 14.7691 18.6949 14.0931 19.2335C13.7549 19.5029 13.4496 19.7188 13.1967 19.874C12.97 20.0131 12.7983 20.0953 12.6879 20.1293C12.5775 20.0954 12.4059 20.0133 12.1792 19.8743C11.9262 19.7192 11.621 19.5034 11.2828 19.2341C10.6068 18.6956 9.80721 17.9496 9.04212 17.063C7.50579 15.2827 6.13796 12.9701 6.13796 10.6531ZM16.139 10.5911C16.139 8.68767 14.5915 7.14009 12.689 7.14009C10.7865 7.14009 9.23896 8.68767 9.23896 10.5911C9.23896 12.4936 10.7866 14.0401 12.689 14.0401C14.5913 14.0401 16.139 12.4936 16.139 10.5911ZM11.139 10.5911C11.139 9.73547 11.8345 9.04009 12.689 9.04009C13.5434 9.04009 14.239 9.73547 14.239 10.5911C14.239 11.4455 13.5436 12.1401 12.689 12.1401C11.8343 12.1401 11.139 11.4455 11.139 10.5911Z" fill="#2B4EFF" stroke="#2B4EFF" stroke-width="0.4"/>
</svg>
