<svg width="24" height="24" viewBox="0 0 24 24" fill="none" xmlns="http://www.w3.org/2000/svg">
<path d="M17.4736 18.4152L21.4736 12.4152C21.5558 12.292 21.5996 12.1473 21.5996 11.9992C21.5996 11.8511 21.5558 11.7064 21.4736 11.5832L17.4736 5.58318C17.4051 5.48045 17.3123 5.39621 17.2035 5.33795C17.0946 5.27969 16.9731 5.24921 16.8496 5.24921H2.25098L6.47365 11.5839C6.55578 11.7072 6.5996 11.8519 6.59959 12C6.59958 12.1481 6.55574 12.2928 6.4736 12.416L2.25098 18.7492H16.8496C16.9731 18.7492 17.0946 18.7187 17.2035 18.6605C17.3123 18.6022 17.4051 18.518 17.4736 18.4152Z" stroke="#2B4EFF" stroke-width="2" stroke-linecap="round" stroke-linejoin="round"/>
</svg>
