<svg width="80" height="80" viewBox="0 0 80 80" fill="none" xmlns="http://www.w3.org/2000/svg">
<path d="M40 56.25C46.9036 56.25 52.5 50.6536 52.5 43.75C52.5 36.8464 46.9036 31.25 40 31.25C33.0964 31.25 27.5 36.8464 27.5 43.75C27.5 50.6536 33.0964 56.25 40 56.25Z" stroke="#2B4EFF" stroke-width="3" stroke-linecap="round" stroke-linejoin="round"/>
<path d="M22.0107 67.4997C23.653 64.1266 26.2105 61.2832 29.3914 59.294C32.5722 57.3048 36.2483 56.25 39.9999 56.25C43.7516 56.25 47.4276 57.3048 50.6085 59.2939C53.7894 61.2831 56.347 64.1265 57.9892 67.4996" stroke="#2B4EFF" stroke-width="3" stroke-linecap="round" stroke-linejoin="round"/>
<path d="M63.9091 36.4371C66.3456 36.7856 68.6896 37.6107 70.8071 38.8652C72.9246 40.1197 74.7743 41.7792 76.2504 43.7487" stroke="#2B4EFF" stroke-width="3" stroke-linecap="round" stroke-linejoin="round"/>
<path d="M52.221 21.9461C52.945 20.428 54.0401 19.117 55.405 18.1344C56.77 17.1517 58.3607 16.5291 60.03 16.3243C61.6994 16.1194 63.3935 16.3387 64.9555 16.9621C66.5176 17.5855 67.8973 18.5928 68.9669 19.8907C70.0365 21.1886 70.7615 22.7353 71.0749 24.3878C71.3882 26.0402 71.2798 27.7449 70.7597 29.3444C70.2396 30.9438 69.3245 32.3862 68.0991 33.5382C66.8737 34.6902 65.3776 35.5146 63.7491 35.9351" stroke="#2B4EFF" stroke-width="3" stroke-linecap="round" stroke-linejoin="round"/>
<path d="M16.2508 35.9352C14.6224 35.5146 13.1264 34.6903 11.901 33.5383C10.6757 32.3863 9.76064 30.9439 9.24051 29.3445C8.72039 27.7451 8.61199 26.0404 8.92534 24.388C9.23869 22.7356 9.96367 21.189 11.0332 19.891C12.1028 18.5931 13.4824 17.5859 15.0444 16.9625C16.6064 16.3391 18.3004 16.1196 19.9697 16.3245C21.6391 16.5293 23.2298 17.1518 24.5947 18.1343C25.9597 19.1169 27.0548 20.4278 27.7789 21.9458" stroke="#2B4EFF" stroke-width="3" stroke-linecap="round" stroke-linejoin="round"/>
<path d="M3.74911 43.7494C5.22521 41.7797 7.0749 40.1201 9.19254 38.8654C11.3102 37.6108 13.6543 36.7856 16.0909 36.4371" stroke="#2B4EFF" stroke-width="3" stroke-linecap="round" stroke-linejoin="round"/>
</svg>
