<svg width="80" height="80" viewBox="0 0 80 80" fill="none" xmlns="http://www.w3.org/2000/svg">
<path d="M40 56.25C46.9036 56.25 52.5 50.6536 52.5 43.75C52.5 36.8464 46.9036 31.25 40 31.25C33.0964 31.25 27.5 36.8464 27.5 43.75C27.5 50.6536 33.0964 56.25 40 56.25Z" stroke="white" stroke-width="3" stroke-linecap="round" stroke-linejoin="round"/>
<path d="M22.0107 67.4997C23.653 64.1266 26.2105 61.2832 29.3914 59.294C32.5723 57.3048 36.2483 56.25 40 56.25C43.7516 56.25 47.4277 57.3048 50.6086 59.2939C53.7894 61.2831 56.347 64.1265 57.9893 67.4996" stroke="white" stroke-width="3" stroke-linecap="round" stroke-linejoin="round"/>
<path d="M63.9092 36.4371C66.3456 36.7856 68.6896 37.6107 70.8071 38.8652C72.9247 40.1197 74.7743 41.7791 76.2504 43.7486" stroke="white" stroke-width="3" stroke-linecap="round" stroke-linejoin="round"/>
<path d="M52.2212 21.9461C52.9452 20.428 54.0403 19.117 55.4052 18.1344C56.7702 17.1517 58.3609 16.5292 60.0302 16.3243C61.6996 16.1194 63.3937 16.3388 64.9557 16.9622C66.5178 17.5855 67.8975 18.5928 68.9671 19.8907C70.0367 21.1887 70.7617 22.7354 71.0751 24.3878C71.3884 26.0402 71.28 27.745 70.7599 29.3444C70.2398 30.9438 69.3247 32.3862 68.0993 33.5383C66.8739 34.6903 65.3778 35.5147 63.7493 35.9352" stroke="white" stroke-width="3" stroke-linecap="round" stroke-linejoin="round"/>
<path d="M16.2506 35.9352C14.6222 35.5146 13.1262 34.6903 11.9008 33.5383C10.6755 32.3863 9.76042 30.9439 9.2403 29.3445C8.72018 27.7451 8.61178 26.0404 8.92513 24.388C9.23848 22.7356 9.96346 21.189 11.033 19.891C12.1026 18.5931 13.4822 17.5859 15.0442 16.9625C16.6062 16.3391 18.3002 16.1196 19.9695 16.3245C21.6388 16.5293 23.2295 17.1518 24.5945 18.1343C25.9595 19.1169 27.0546 20.4278 27.7786 21.9458" stroke="white" stroke-width="3" stroke-linecap="round" stroke-linejoin="round"/>
<path d="M3.74902 43.7493C5.22511 41.7797 7.07481 40.1201 9.19245 38.8654C11.3101 37.6108 13.6542 36.7856 16.0908 36.4371" stroke="white" stroke-width="3" stroke-linecap="round" stroke-linejoin="round"/>
</svg>
